<?xml version="1.0" encoding="utf-8"?>
<!-- Generator: Adobe Illustrator 19.2.0, SVG Export Plug-In . SVG Version: 6.00 Build 0)  -->
<svg version="1.1" id="Layer_1" xmlns="http://www.w3.org/2000/svg" xmlns:xlink="http://www.w3.org/1999/xlink" x="0px" y="0px"
	 viewBox="0 0 7 5" style="enable-background:new 0 0 7 5;" xml:space="preserve">
<style type="text/css">
	.st0{fill-rule:evenodd;clip-rule:evenodd;fill:#234DA1;}
</style>
<g>
	<path class="st0" d="M0.2,1.5L0.2,1.5C0.1,1.3,0,1.2,0,1c0-0.4,0.3-0.8,0.7-0.8c0.2,0,0.4,0.1,0.5,0.3l0,0l2.2,2.5l2.2-2.5l0,0
		C5.8,0.3,6,0.2,6.2,0.2C6.6,0.2,7,0.5,7,1c0,0.2-0.1,0.4-0.2,0.5l0,0L4.1,4.6C3.9,4.7,3.7,4.8,3.5,4.8C3.3,4.8,3.1,4.7,3,4.6
		L0.2,1.5z"/>
</g>
</svg>
