<?xml version="1.0" encoding="utf-8"?>
<!-- Generator: Adobe Illustrator 19.2.0, SVG Export Plug-In . SVG Version: 6.00 Build 0)  -->
<svg version="1.1" id="Layer_1" xmlns="http://www.w3.org/2000/svg" xmlns:xlink="http://www.w3.org/1999/xlink" x="0px" y="0px"
	 viewBox="0 0 34.1 29.8" style="enable-background:new 0 0 34.1 29.8;" xml:space="preserve">
<style type="text/css">
	.st0{fill:#CECDCD;}
</style>
<path class="st0" d="M34.1,8.5c0,0.5-0.2,0.9-0.5,1.3l0,0L18.7,29l0,0c-0.4,0.5-1,0.8-1.7,0.8s-1.3-0.3-1.7-0.8l0,0L0.4,9.8l0,0
	C0.2,9.5,0,9,0,8.5C0,7.9,0.2,7.4,0.6,7l0,0L7,0.6l0,0C7.4,0.2,7.9,0,8.5,0h17c0.6,0,1.1,0.2,1.5,0.6l0,0L33.5,7l0,0
	C33.9,7.4,34.1,7.9,34.1,8.5z M24.7,4.3H9.4L5,8.7l12,15.5L29.1,8.7L24.7,4.3z"/>
</svg>
